<?xml version="1.0" encoding="utf-8"?>
<!-- Generator: Adobe Illustrator 16.0.0, SVG Export Plug-In . SVG Version: 6.00 Build 0)  -->
<!DOCTYPE svg PUBLIC "-//W3C//DTD SVG 1.1//EN" "http://www.w3.org/Graphics/SVG/1.1/DTD/svg11.dtd">
<svg version="1.1" id="图层_1" xmlns="http://www.w3.org/2000/svg" xmlns:xlink="http://www.w3.org/1999/xlink" x="0px" y="0px"
	 width="200px" height="200px" viewBox="0 0 200 200" enable-background="new 0 0 200 200" xml:space="preserve">
<g>
	<g>
		<path fill="#FFFFFF" d="M114.205,129.293l66.742,47.661c0,0,12.793-16.968,12.902-18.154c0.107-1.189-6.609-4.648-6.609-4.648
			l-53.634-42.466l-12.102,1.288l-3.364,8.887L114.205,129.293z"/>
		<path fill="#FFFA00" d="M109.056,131.912l66.742,47.661c0,0,9.348-12.536,9.455-13.726c0.111-1.188-3.162-9.079-3.162-9.079
			l-53.635-42.464l-12.103,1.288l-3.362,8.889L109.056,131.912z"/>
		<circle fill="#FFFFFF" cx="58.796" cy="69.929" r="44.804"/>
		<circle fill="#00C4F6" cx="50.457" cy="72.289" r="44.803"/>
		<g>
			<g>
				<path fill="#FFFFFF" d="M62.308,112.112c-22.576,3.181-43.53-12.599-46.71-35.173c-3.181-22.577,12.599-43.532,35.174-46.712
					c2.099-0.296,4.038,1.166,4.334,3.264c0.295,2.098-1.166,4.038-3.263,4.333c-18.388,2.59-31.239,19.657-28.648,38.043
					c2.59,18.388,19.656,31.239,38.042,28.649c2.099-0.296,4.038,1.164,4.334,3.264C65.866,109.877,64.406,111.817,62.308,112.112z"
					/>
			</g>
			<path d="M192.454,149.817c-0.004,0-0.006-0.002-0.007-0.004l-55.936-42.12c-0.002-0.002-0.004-0.004-0.008-0.006
				c-2.762-2.077-6.237-2.808-9.792-2.071c-3.366,0.702-6.412,2.676-8.579,5.551l-1.003,1.331l-15.327-11.544
				c7.009-10.64,10.33-23.768,8.417-37.346C106.05,34.009,78.576,13.32,48.978,17.49c-29.6,4.169-50.289,31.644-46.119,61.244
				c4.17,29.6,31.644,50.287,61.243,46.118l0,0c13.293-1.874,24.786-8.448,33.042-17.803l15.372,11.577l-1.001,1.33
				c-4.585,6.091-3.809,14.441,1.733,18.619c0,0.002,0.002,0.004,0.006,0.006c0,0,56.152,42.276,56.265,42.345
				c2.54,1.78,5.597,2.414,8.602,1.993c3.544-0.501,7.01-2.458,9.445-5.692l6.619-8.79c2.165-2.877,3.22-6.349,2.966-9.779
				C196.883,155.039,195.213,151.899,192.454,149.817z M63.032,117.254c-25.412,3.579-48.997-14.181-52.577-39.591
				s14.181-48.997,39.592-52.576c25.41-3.58,48.995,14.182,52.576,39.592C106.201,90.088,88.44,113.673,63.032,117.254z
				 M164.365,167.468l-46.499-35.017l0,0c-2.165-1.633-2.267-5.168-0.225-7.878l6.621-8.791c1.046-1.391,2.473-2.334,4.021-2.656
				c1.358-0.278,2.64-0.037,3.612,0.695c0,0,0,0,0.002,0l46.497,35.016L164.365,167.468z M189.498,159.223
				c0.116,1.577-0.396,3.209-1.444,4.599l-6.615,8.792c-2.045,2.713-5.468,3.592-7.635,1.961l-3.309-2.491l14.029-18.631
				l3.307,2.489c0,0,0.002,0,0.002,0.002C188.805,156.676,189.396,157.84,189.498,159.223z"/>
		</g>
		<g>
			<g>
				<path d="M125.463,139.181c4.241-7.337,9.121-14.24,14.093-21.094c2.545-3.51-3.279-6.852-5.793-3.387
					c-4.971,6.854-9.851,13.758-14.093,21.094C117.501,139.547,123.299,142.923,125.463,139.181L125.463,139.181z"/>
			</g>
		</g>
		<g>
			<g>
				<path d="M134.72,147.783c2.743-3.713,5.908-7.073,8.968-10.521c2.634-2.969,4.831-6.499,7.874-9.063
					c3.313-2.792-1.459-7.513-4.744-4.744c-3.388,2.854-5.908,6.848-8.846,10.158c-3.123,3.52-6.245,6.995-9.045,10.783
					C126.352,147.882,132.179,151.222,134.72,147.783L134.72,147.783z"/>
			</g>
		</g>
		<g>
			<g>
				<path d="M140.928,155.778c7.947-7.071,12.681-16.88,20.532-24.03c3.204-2.919-1.554-7.649-4.744-4.744
					c-7.854,7.154-12.59,16.964-20.532,24.03C132.945,153.916,137.707,158.644,140.928,155.778L140.928,155.778z"/>
			</g>
		</g>
		<g>
			<g>
				<path d="M149.98,162.049c5.771-7.773,12.722-14.577,18.608-22.266c2.631-3.437-3.201-6.771-5.793-3.387
					c-5.887,7.689-12.829,14.483-18.608,22.266C141.605,162.141,147.433,165.479,149.98,162.049L149.98,162.049z"/>
			</g>
		</g>
		<g>
			<g>
				<path d="M157.223,168.375c7.146-8.117,13.849-16.584,20.229-25.313c2.558-3.499-3.268-6.841-5.793-3.387
					c-6.045,8.27-12.412,16.267-19.181,23.955C149.633,166.864,154.358,171.628,157.223,168.375L157.223,168.375z"/>
			</g>
		</g>
	</g>
	<g>
		<path fill="#FFFA00" d="M41.677,64.87l-1.953-3.153l1.657-1.027l0.56,0.904l4.538-2.81l0.949,1.533l-4.538,2.81l0.445,0.717
			l3.944-2.443l2.772,4.477l-0.235,0.146c0.948,0.509,2.208,1.217,3.027,1.684l-0.91,1.625c-0.805-0.528-2.244-1.331-3.227-1.869
			l0.839-1.271l-8.112,5.023l1.607-0.277c0.228,1.142,0.367,2.802,0.421,3.828l-1.925,0.097c0.063-1.168-0.042-2.609-0.239-3.563
			l-0.124,0.076l-2.771-4.477L41.677,64.87z M41.82,68.886l5.713-3.538l-0.889-1.435l-5.712,3.538L41.82,68.886z M43.484,70.746
			l1.316-1.191c0.606,0.565,1.637,1.621,2.173,2.212l-1.389,1.236C44.98,72.25,44.082,71.353,43.484,70.746z M46.164,69.105
			l1.141-1.306c0.75,0.493,1.886,1.416,2.514,1.934l-1.239,1.314C47.931,70.439,46.897,69.625,46.164,69.105z"/>
		<path fill="#FFFA00" d="M56.648,59.328l1.944,3.141l2.25-1.394l-1.554-2.511l1.583-0.979l2.71,4.377l-1.583,0.98l-0.214-0.346
			l-7.604,4.709l-2.489-4.019l1.583-0.981l1.547,2.498l2.238-1.386l-1.945-3.141l-4.674,2.894l-0.942-1.521l4.674-2.895
			l-0.857-1.386l-3.909,2.42l-0.941-1.521l3.907-2.419l-0.934-1.508l1.534-0.949l0.935,1.508l3.919-2.427l0.941,1.521l-3.919,2.427
			l0.857,1.384l4.686-2.901l0.943,1.521L56.648,59.328z"/>
		<path fill="#FFFA00" d="M51.766,73.622l3.351-2.075l0.996,1.608l-0.854,0.528c0.875,1.938,1.303,3.624,1.302,5.334
			c1.143,0.354,2.432,0.53,3.904,0.56l-0.112,2.002c-1.455-0.057-2.764-0.29-3.954-0.666c-0.209,1.208-0.624,2.473-1.232,3.895
			l-1.234-0.364c-0.13,0.37-0.46,0.694-1.004,1.031l-1.137,0.704l-1.16-1.265c0.118,0.714,0.148,1.482,0.129,2.418l-1.949-0.025
			c0.132-2.494-0.271-3.698-2.25-7.059l-0.574-1.012l-0.903,0.56l-0.965-1.559l2.139-1.325c-0.54-0.401-1.17-0.867-1.316-0.964
			l1.248-1.355c0.174,0.115,1.104,0.789,1.749,1.278l1.62-1.004l0.72,1.163c-0.126-1.17-0.363-2.41-0.724-3.35l1.761-0.748
			C51.501,72.502,51.643,73.065,51.766,73.622z M50.328,76.548l-2.807,1.739l0.637,1.11l2.201-1.363
			C50.377,77.595,50.371,77.086,50.328,76.548z M50.605,84.758l0.815-0.505c0.519-0.323,0.579-0.667,0.38-1.073
			c-0.178-0.37-1.376-2.553-1.605-2.924l-1.138,0.706C49.933,82.541,50.397,83.622,50.605,84.758z M51.161,78.529
			c0.727,1.312,2.144,3.821,2.408,4.274l0.182,0.35c0.451-1.067,0.754-2.042,0.899-2.969c-0.925-0.472-1.749-1.056-2.524-1.755
			c0.003,0.117-0.012,0.23-0.028,0.341L51.161,78.529z M52.128,76.032c0.777,0.921,1.641,1.652,2.61,2.197
			c-0.078-1.147-0.406-2.313-1-3.604l-1.645,1.019L52.128,76.032z"/>
		<path fill="#FFFA00" d="M62.395,68.443l4.377-2.71l0.98,1.583l-4.415,2.734c2.115,2.007,4.565,2.732,8.286,2.413l-0.072,2.148
			c-3.05,0.075-5.548-0.534-7.446-1.719c0.208,2.489-0.622,5.072-1.822,7.526l-2.003-0.915c1.642-2.762,2.458-5.781,1.326-8.383
			l-4.302,2.666l-0.98-1.583l4.365-2.704l-1.608-2.597l1.706-1.057L62.395,68.443z"/>
		<path fill="#FFFA00" d="M73.964,72.655l-1.497-0.648c0.222-0.444,0.076-0.679-0.146-1.038l-1.133-1.831l-1.001,0.621l-0.866-1.398
			l1.002-0.62l-0.566-0.916l-0.569,0.353l-0.269-0.432l-0.01,0.092l-1.535-0.572c0.068-1.188-0.082-2.841-0.492-4.468l1.574-0.497
			c0.096,0.403,0.179,0.813,0.237,1.239l1.509-0.935l0.872,1.41l-2.164,1.34c0.025,0.344,0.05,0.688,0.042,1.035l2.336-1.448
			l0.866,1.397l-0.989,0.613l0.566,0.915l1.15-0.713l0.865,1.397l-1.15,0.713l0.942,1.521l0.545-1.108l1.17,1.226
			C75.116,70.179,74.33,71.949,73.964,72.655z M71.722,64.395l-0.734-1.188l1.521-0.941c-0.247-0.122-0.493-0.242-0.727-0.372
			l0.239-0.388l-1.175,0.728l-0.719-1.162l2.498-1.547c-0.285-0.184-0.569-0.367-0.755-0.474l1.241-1.367
			c0.271,0.191,0.813,0.54,1.196,0.799l2.609-1.615l0.719,1.162l-1.558,0.965l0.479-0.057l0.046,0.793l1.879-1.164l0.735,1.186
			L71.722,64.395z M83.01,65.412c0.55,1.028,0.415,1.471-0.662,2.137l-1.26,0.781c-0.878,0.543-1.46,0.458-2.02-0.443l-0.888-1.435
			l-0.693,0.428c0.826,1.611,0.405,3.001-1.185,4.909l-1.462-0.839c1.455-1.604,1.472-2.349,1.126-3.127l-1.248,0.773l-2.504-4.043
			l6.517-4.035l2.418,3.906l1.068-0.403C82.403,64.351,82.789,65.001,83.01,65.412z M74.141,61.256l0.853-0.529
			c-0.006-0.286-0.017-0.69-0.042-1.034l-1.756,1.087L74.141,61.256z M74.511,65.114l3.647-2.259l-0.152-0.248l-3.649,2.26
			L74.511,65.114z M79.039,64.277l-0.175-0.285l-3.648,2.259l0.176,0.284L79.039,64.277z M80.9,64.768l-1.336,0.827l0.599,0.965
			c0.235,0.384,0.382,0.396,0.715,0.189l0.408-0.252c0.395-0.245,0.428-0.385,0.215-0.731C81.386,65.579,81.103,65.123,80.9,64.768z
			"/>
	</g>
</g>
</svg>
