<?xml version="1.0" encoding="utf-8"?>
<!-- Generator: Adobe Illustrator 16.0.0, SVG Export Plug-In . SVG Version: 6.00 Build 0)  -->
<!DOCTYPE svg PUBLIC "-//W3C//DTD SVG 1.1//EN" "http://www.w3.org/Graphics/SVG/1.1/DTD/svg11.dtd">
<svg version="1.1" id="图层_1" xmlns="http://www.w3.org/2000/svg" xmlns:xlink="http://www.w3.org/1999/xlink" x="0px" y="0px"
	 width="240px" height="99px" viewBox="0 0 240 99" enable-background="new 0 0 240 99" xml:space="preserve">
<g>
	<g>
		<path d="M76.676,37.514h-1.827c5.996-8.525,9.237-19.084,9.712-31.629h7.918c-0.486,3.312-1.201,6.986-2.169,11.005h7.546
			c0-0.23,0-0.692,0-1.415c0.244-0.936,0.385-1.772,0.385-2.494h7.891c-0.483,8.312-3.826,16.007-10.066,23.107
			c4.304,3.799,9.09,5.82,14.388,6.045c-2.394,3.798-2.885,7.108-1.439,9.94c-6.708-2.832-12.22-7.095-16.534-12.771
			c-2.889,3.063-8.393,7.102-16.538,12.079h-1.437V72H88.16v-5.709H78.115v-3.527H88.16v-5.709H77.379v-3.537H88.16v-7.815h7.175
			v7.815h12.232v3.537H95.335v5.709h10.796v3.527H95.335V72h14.392v3.543H95.335v18.842H88.16V75.543H74.504v3.553h-5.757v-4.982
			H55.094v7.838h-5.756V20.082h5.756v49.783h4.324V6.592h5.734v63.273h3.595V20.799h5.757v29.863
			c7.431-5.192,12.686-9.937,15.806-14.217c-1.921-4.023-3.236-7.82-3.95-11.357C84.677,28.152,81.457,32.295,76.676,37.514z
			 M97.531,20.454h-8.66c-0.222,0.239-0.357,0.483-0.357,0.7c-0.231,0.487-0.578,1.067-1.078,1.785
			c1.436,4.265,3.236,7.589,5.377,9.941C94.98,29.584,96.55,25.435,97.531,20.454z"/>
		<path d="M127.317,35.746h15.814V6.592h7.19v29.154h2.517l14.746-24.185l3.225,2.142L156.78,35.746h8.65V32.88h7.171v52.975
			c-0.239,4.504-3.96,7.463-11.12,8.883c-0.27-1.654-1.099-2.26-2.519-1.768l-4.689,0.691l-0.338-1.414
			c8.115-1.652,11.947-4.031,11.495-7.102V39.304h-38.113v54.358h-7.194V32.88h7.194V35.746z M124.076,13.354l0.36-0.373
			c4.078,3.101,8.498,6.635,13.3,10.681c-0.966,4.265-2.033,7.327-3.219,9.218C131.389,29.345,127.902,22.826,124.076,13.354z
			 M140.974,80.523h-6.834V47.118h6.834v4.265h10.072v-4.265h6.826v33.406h-6.826v-6.41h-10.072V80.523z M151.046,70.58V54.941
			h-10.072V70.58H151.046z"/>
		<path d="M202.57,21.521h1.445c-4.542,17.551-9.108,35.074-13.663,52.592c1.442,2.846,2.89,5.703,4.325,8.547
			c-1.215,3.564-2.651,6.516-4.325,8.883c-3.821-8.277-7.163-19.197-10.043-32.691l0.683-0.367c0.262,0.953,0.752,1.904,1.468,2.844
			c2.167,3.578,3.597,6.178,4.303,7.838C192.28,53.518,197.551,37.65,202.57,21.521z M180.31,26.857l0.683-0.354
			c5.064,4.967,8.659,8.521,10.803,10.656c-0.944,4.975-2.144,8.311-3.604,9.958C184.627,40.238,181.977,33.48,180.31,26.857z
			 M186.763,6.956l0.338-0.364c1.937,2.128,5.91,5.929,11.896,11.377c-1.445,4.253-2.643,6.88-3.611,7.814
			C191.075,18.2,188.191,11.933,186.763,6.956z M205.437,8.72h7.584v4.634h26.964v3.892h-26.964v68.979h26.964v3.902h-26.964v3.535
			h-7.584V8.72z"/>
	</g>
	<g>
		<path d="M5.109,12.182h5.422L5.109,23.548h1.507l1.957-3.673h5.105L6.013,35.432h6.329v5.021H0.311v-4.185l4.062-7.854H0.311
			v-6.041L5.109,12.182z M0.311,44.979h11.874v4.836H0.311V44.979z M12.952,48.994v-3.854h0.727c0.599,0,1.05-0.393,1.372-1.165
			l1.49-4.869h4.516l-2.271,7.206c-0.394,1.996-1.295,2.89-2.682,2.681H12.952z M32.771,12.182v13.383h1.197v4.691H26.47v16.555
			c0,2.111-0.613,3.113-1.811,3.005h-5.103v-3.841h1.188c0.6,0.122,0.851-0.207,0.764-0.995V30.255h-8.274v-4.691h14.871v-2.509
			H13.836v-4.022h14.269v-2.183H13.551v-4.669H32.771z M16.698,37.106c-0.921,0.119-1.519-0.275-1.811-1.167l-1.654-4.034h4.804
			l0.321,1.02c0.284,0.555,0.69,0.829,1.198,0.829h1.053v3.351H16.698z M27.198,39.288h4.363L32.31,44.3
			c0.106,0.679,0.384,0.99,0.922,0.99h0.428v4.033h-3.311c-0.893,0-1.489-0.721-1.791-2.181L27.198,39.288z M28.412,33.914
			c0.5,0.138,0.853-0.159,1.044-0.812l0.608-1.016h4.197l-1.793,4.183c-0.221,0.671-1.007,1.018-2.404,1.018h-2.553v-3.373H28.412z"
			/>
		<path d="M3.341,59.201v-4.359h5.53v4.359h3.918v-3.875h5.248v3.525l2.863-0.152v-4.025h5.414v3.67l7.947-0.473v22.391
			c0.222,3.348-1.431,4.926-4.936,4.688h-2.266v-5.193h1.044c0.717,0,1.063-0.424,1.063-1.348V62.879l-2.853,0.152v22.426h-5.258
			V63.211l-3.02,0.178v23.059c-0.091,0.9,0.253,1.299,1.07,1.178h15.154v4.854h-17.27c-2.908,0.094-4.296-1.551-4.203-5.01v-23.59
			H8.871v23.912h3.471v4.871H0.016v-4.871h3.325V64.047H0.016v-4.846H3.341z"/>
	</g>
</g>
</svg>
