<?xml version="1.0" encoding="utf-8"?>
<!-- Generator: Adobe Illustrator 16.0.0, SVG Export Plug-In . SVG Version: 6.00 Build 0)  -->
<!DOCTYPE svg PUBLIC "-//W3C//DTD SVG 1.1//EN" "http://www.w3.org/Graphics/SVG/1.1/DTD/svg11.dtd">
<svg version="1.1" id="图层_1" xmlns="http://www.w3.org/2000/svg" xmlns:xlink="http://www.w3.org/1999/xlink" x="0px" y="0px"
	 width="267px" height="228px" viewBox="0 0 267 228" enable-background="new 0 0 267 228" xml:space="preserve">
<g>
	<g>
		<path fill="#FFFFFF" d="M153.67,153.873l90.844,64.871c0,0,17.414-23.093,17.561-24.71c0.148-1.618-8.994-6.326-8.994-6.326
			l-73.004-57.802l-16.473,1.754l-4.578,12.097L153.67,153.873z"/>
		<path fill="#FFFA00" d="M146.662,157.437l90.842,64.873c0,0,12.725-17.063,12.871-18.682c0.148-1.616-4.305-12.356-4.305-12.356
			l-73.002-57.8l-16.473,1.753l-4.58,12.098L146.662,157.437z"/>
		<circle fill="#FFFFFF" cx="78.25" cy="73.07" r="60.983"/>
		<circle fill="#00C4F6" cx="66.899" cy="76.282" r="60.984"/>
		<g>
			<g>
				<path fill="#FFFFFF" d="M83.029,130.488c-30.728,4.329-59.249-17.149-63.578-47.878c-4.329-30.729,17.148-59.25,47.877-63.58
					c2.856-0.402,5.496,1.586,5.898,4.442c0.402,2.856-1.586,5.496-4.441,5.899c-25.027,3.525-42.519,26.755-38.993,51.782
					c3.525,25.027,26.754,42.52,51.781,38.994c2.856-0.402,5.496,1.587,5.898,4.442C87.874,127.445,85.885,130.086,83.029,130.488z"
					/>
			</g>
			<path d="M260.174,181.811c-0.002-0.002-0.004-0.005-0.008-0.006l-76.135-57.332c-0.004-0.002-0.006-0.005-0.01-0.008
				c-3.76-2.827-8.49-3.82-13.328-2.82c-4.584,0.958-8.73,3.643-11.678,7.557l-1.363,1.81l-20.865-15.712
				c9.539-14.482,14.061-32.351,11.457-50.832c-5.676-40.288-43.07-68.449-83.359-62.773C24.596,7.369-3.563,44.765,2.112,85.053
				c5.676,40.289,43.071,68.449,83.36,62.774l0,0c18.094-2.549,33.737-11.499,44.972-24.231l20.925,15.758l-1.363,1.811
				c-6.242,8.291-5.186,19.657,2.357,25.344c0.004,0.002,0.006,0.006,0.008,0.008c0,0,76.434,57.544,76.586,57.637
				c3.457,2.421,7.615,3.286,11.707,2.71c4.824-0.68,9.543-3.344,12.857-7.745l9.008-11.964c2.949-3.916,4.383-8.643,4.035-13.311
				C266.201,188.916,263.932,184.644,260.174,181.811z M84.015,137.486c-34.588,4.871-66.69-19.302-71.563-53.89
				C7.58,49.01,31.755,16.906,66.342,12.034c34.587-4.872,66.689,19.303,71.563,53.89
				C142.777,100.51,118.601,132.612,84.015,137.486z M221.943,205.834l-63.291-47.662v-0.001c-2.947-2.223-3.086-7.032-0.305-10.724
				l9.01-11.965c1.424-1.891,3.369-3.175,5.473-3.614c1.85-0.379,3.596-0.051,4.918,0.944c0,0.001,0,0.001,0.002,0.002
				l63.291,47.661L221.943,205.834z M256.152,194.612c0.16,2.145-0.537,4.366-1.965,6.259l-9.006,11.965
				c-2.781,3.693-7.443,4.891-10.393,2.67l-4.502-3.391l19.096-25.358l4.502,3.39c0,0,0.002,0,0.002,0.002
				C255.209,191.144,256.012,192.729,256.152,194.612z"/>
		</g>
		<g>
			<g>
				<path d="M167.945,166.72c5.763-9.991,12.415-19.385,19.184-28.71c2.546-3.509-3.278-6.851-5.793-3.387
					c-6.768,9.326-13.421,18.72-19.184,28.71C159.987,167.088,165.785,170.465,167.945,166.72L167.945,166.72z"/>
			</g>
		</g>
		<g>
			<g>
				<path d="M180.547,178.43c3.64-4.943,7.822-9.429,11.899-14.007c3.751-4.212,6.894-9.26,11.215-12.896
					c3.314-2.789-1.457-7.51-4.744-4.744c-4.73,3.98-8.262,9.581-12.374,14.198c-4.078,4.579-8.149,9.119-11.789,14.062
					C172.185,178.532,178.011,181.873,180.547,178.43L180.547,178.43z"/>
			</g>
		</g>
		<g>
			<g>
				<path d="M189.187,189.065c10.861-9.575,17.214-23.021,27.945-32.706c3.218-2.904-1.542-7.634-4.744-4.744
					c-10.734,9.688-17.089,23.136-27.945,32.706C181.191,187.188,185.955,191.914,189.187,189.065L189.187,189.065z"/>
			</g>
		</g>
		<g>
			<g>
				<path d="M201.318,197.847c7.839-10.597,17.333-19.828,25.328-30.307c2.625-3.441-3.206-6.776-5.793-3.387
					c-7.995,10.479-17.482,19.701-25.328,30.307C192.949,197.943,198.775,201.283,201.318,197.847L201.318,197.847z"/>
			</g>
		</g>
		<g>
			<g>
				<path d="M211.366,206.211c9.664-10.962,18.73-22.405,27.345-34.207c2.555-3.501-3.27-6.843-5.793-3.387
					c-8.278,11.343-17.009,22.316-26.296,32.85C203.773,204.698,208.5,209.462,211.366,206.211L211.366,206.211z"/>
			</g>
		</g>
	</g>
	<g>
		<path fill="#FFFA00" d="M54.948,66.183l-2.658-4.292l2.256-1.396l0.761,1.229l6.177-3.825l1.292,2.086l-6.177,3.825l0.605,0.977
			l5.369-3.324l3.772,6.093l-0.32,0.198c1.29,0.692,3.004,1.656,4.12,2.292l-1.239,2.21c-1.097-0.719-3.054-1.812-4.392-2.543
			l1.141-1.73l-11.041,6.837l2.188-0.377c0.311,1.554,0.499,3.813,0.573,5.21l-2.62,0.132c0.087-1.59-0.057-3.551-0.326-4.851
			l-0.168,0.104l-3.773-6.093L54.948,66.183z M55.143,71.65l7.776-4.814l-1.209-1.953l-7.776,4.815L55.143,71.65z M57.409,74.183
			l1.791-1.621c0.826,0.77,2.228,2.207,2.958,3.011l-1.891,1.684C59.445,76.229,58.222,75.007,57.409,74.183z M61.055,71.948
			l1.554-1.777c1.021,0.671,2.567,1.926,3.422,2.63l-1.686,1.79C63.461,73.765,62.053,72.658,61.055,71.948z"/>
		<path fill="#FFFA00" d="M75.326,58.641l2.647,4.275l3.063-1.897l-2.115-3.417l2.154-1.334l3.688,5.958l-2.154,1.334l-0.292-0.471
			l-10.351,6.41l-3.387-5.47l2.154-1.334l2.105,3.4l3.046-1.886l-2.647-4.275l-6.362,3.94l-1.283-2.071l6.362-3.939l-1.167-1.886
			l-5.319,3.293l-1.282-2.07l5.318-3.293l-1.271-2.053l2.087-1.292l1.271,2.052l5.335-3.304l1.282,2.07l-5.335,3.304l1.167,1.885
			l6.378-3.95l1.282,2.071L75.326,58.641z"/>
		<path fill="#FFFA00" d="M68.681,78.097l4.561-2.824l1.355,2.188l-1.162,0.719c1.191,2.638,1.773,4.932,1.772,7.261
			c1.556,0.481,3.311,0.721,5.315,0.761l-0.153,2.725c-1.98-0.077-3.761-0.395-5.38-0.905c-0.286,1.644-0.849,3.366-1.678,5.299
			l-1.68-0.495c-0.176,0.504-0.626,0.945-1.366,1.403l-1.549,0.959l-1.579-1.723c0.16,0.972,0.202,2.018,0.175,3.291l-2.652-0.034
			c0.18-3.395-0.369-5.034-3.062-9.606l-0.783-1.378l-1.228,0.761l-1.313-2.122l2.911-1.803c-0.734-0.546-1.592-1.18-1.791-1.313
			l1.699-1.844c0.237,0.156,1.502,1.073,2.38,1.739l2.205-1.366l0.98,1.583c-0.172-1.594-0.495-3.279-0.985-4.56l2.397-1.018
			C68.32,76.574,68.514,77.338,68.681,78.097z M66.723,82.08l-3.821,2.366l0.867,1.512l2.996-1.855
			C66.791,83.504,66.781,82.812,66.723,82.08z M67.1,93.255l1.111-0.688c0.707-0.438,0.789-0.907,0.517-1.46
			c-0.242-0.503-1.873-3.475-2.185-3.979l-1.549,0.958C66.186,90.236,66.818,91.708,67.1,93.255z M67.857,84.776
			c0.99,1.786,2.918,5.202,3.277,5.818l0.248,0.475c0.615-1.451,1.027-2.778,1.224-4.041c-1.259-0.642-2.38-1.437-3.436-2.39
			c0.005,0.16-0.016,0.313-0.038,0.465L67.857,84.776z M69.175,81.376c1.056,1.254,2.232,2.25,3.552,2.992
			c-0.106-1.563-0.553-3.149-1.361-4.907l-2.239,1.387L69.175,81.376z"/>
		<path fill="#FFFA00" d="M83.148,71.047l5.958-3.689l1.334,2.155l-6.008,3.721c2.88,2.732,6.215,3.719,11.278,3.284l-0.099,2.925
			c-4.151,0.102-7.551-0.727-10.134-2.34c0.282,3.388-0.847,6.905-2.48,10.245l-2.728-1.246c2.236-3.76,3.346-7.87,1.806-11.41
			l-5.856,3.627l-1.334-2.154l5.941-3.679l-2.189-3.535l2.323-1.438L83.148,71.047z"/>
		<path fill="#FFFA00" d="M98.894,76.781l-2.036-0.882c0.301-0.604,0.103-0.924-0.199-1.412l-1.543-2.491l-1.363,0.844l-1.177-1.902
			l1.363-0.845l-0.771-1.245l-0.774,0.479l-0.365-0.589l-0.015,0.125l-2.088-0.779c0.092-1.618-0.113-3.866-0.669-6.082l2.143-0.676
			c0.13,0.549,0.243,1.108,0.323,1.687l2.053-1.271l1.188,1.918l-2.946,1.824c0.034,0.468,0.068,0.936,0.058,1.409l3.181-1.97
			l1.177,1.901l-1.346,0.834l0.771,1.246l1.565-0.97l1.177,1.902l-1.565,0.97l1.282,2.07l0.743-1.507l1.591,1.668
			C100.463,73.411,99.393,75.82,98.894,76.781z M95.844,65.538l-1-1.616l2.07-1.282c-0.335-0.165-0.67-0.33-0.988-0.505l0.325-0.528
			l-1.599,0.99l-0.979-1.582l3.4-2.105c-0.387-0.25-0.775-0.499-1.029-0.645l1.689-1.861c0.37,0.26,1.106,0.735,1.628,1.088
			l3.551-2.199l0.979,1.582l-2.121,1.313l0.651-0.076l0.063,1.079l2.558-1.585l1,1.616L95.844,65.538z M111.207,66.922
			c0.75,1.398,0.565,2.002-0.899,2.908l-1.717,1.063c-1.195,0.74-1.988,0.625-2.749-0.604l-1.209-1.952l-0.943,0.583
			c1.124,2.192,0.55,4.084-1.614,6.681l-1.989-1.143c1.979-2.181,2.002-3.196,1.533-4.256l-1.7,1.053l-3.408-5.503l8.87-5.493
			l3.293,5.318l1.453-0.55C110.382,65.477,110.907,66.362,111.207,66.922z M99.136,61.265l1.161-0.72
			c-0.009-0.39-0.023-0.94-0.058-1.409l-2.39,1.48L99.136,61.265z M99.64,66.517l4.965-3.075l-0.208-0.336l-4.965,3.074
			L99.64,66.517z M105.803,65.377l-0.239-0.387l-4.965,3.075l0.239,0.387L105.803,65.377z M108.336,66.045l-1.818,1.125l0.813,1.313
			c0.323,0.521,0.52,0.539,0.975,0.258l0.555-0.344c0.538-0.333,0.583-0.523,0.292-0.995
			C108.997,67.15,108.611,66.527,108.336,66.045z"/>
	</g>
</g>
</svg>
